<svg width="444" height="101" viewBox="0 0 444 101" fill="none" xmlns="http://www.w3.org/2000/svg">
<path d="M169 54.5L140 11C136.4 7.40001 131.833 6.50001 130 6.5V2H178V5C172.4 6.2 171.333 8.5 171.5 9.5L190 40L210 13C214 7.4 208.333 6.33334 205 6.5V2L233 2.5V6.5C223 2.9 203.167 32.3333 194.5 47.5L193.5 86C193.9 91.6 201.333 94.3333 205 95V98H158V95C163.6 95.8 167.667 89.6667 169 86.5V54.5Z" fill="#E3D6A9"/>
<path d="M13.5 17.5C13.9 9.1 7 5.33333 3.5 4.5C1.33851 3.7 3.26604 2.5 4.5 2H46C51.6 1.6 51.3333 4.16667 50.5 5.5C43.7 7.1 40.6667 10.5 40 12L38.5 47H66.5L67.5 22.5C68.3 14.5 65.5 10.1667 64 9C54 7 55.1667 3.5 57 2H102.5C105.7 3.2 104.5 5.83333 103.5 7C98.7 5.8 94.1667 10.8333 92.5 13.5L91 77C87.4 88.6 94.8333 92.8333 99 93.5C105.4 95.9 102.667 97.8333 100.5 98.5H55C51 94.9 57.3333 93 61 92.5C68.2 92.5 67.6667 67.1667 66.5 54.5H38.5V84.5C38.9 88.5 42.6667 91.5 44.5 92.5C51.7 94.5 50.1667 96.6667 48.5 97.5H4.5C0.9 97.5 0.666666 95.8333 1 95C9 92.2 12.6667 88.1667 13.5 86.5C13.3333 67 13.1 25.9 13.5 17.5Z" fill="#E3D6A9"/>
<path fill-rule="evenodd" clip-rule="evenodd" d="M268.5 2.5V6C271.667 6.5 277.7 9.4 276.5 17C275.3 24.6 265.667 68.8333 261 90C259.167 91.8333 254.3 95.4 249.5 95V98.5L303.5 99C313.167 98.1667 333.2 92.2 336 75C338 69 338.4 55.7 324 50.5V48.5C336.333 40.8333 353 13.5 327.5 5L268.5 2.5ZM300.5 19C303.3 10.6 308.333 9.16667 310.5 9.5C323.3 17.5 313.5 33.5 305 45C299 49.5 295.5 46 296 43.5L300.5 19ZM290.5 67.5C292.5 55.1 297 52.3333 299 52.5C309 54.1 310.167 62.5 309.5 66.5C308.7 82.5 302.167 90.5 299 92.5C289.4 94.5 287.333 88.6667 287.5 85.5L290.5 67.5Z" fill="#E3D6A9"/>
<path d="M433.5 7.50001V23.5L431 24.5C431.4 22.1 424.833 14.8333 421.5 11.5C406.3 2.70001 397.5 8.5 395 12.5C387.4 19.7 396.167 28.1667 401.5 31.5C418.7 37.1 431 46.5 435 50.5C451.8 72.1 437.333 89.8333 428 96C414.8 103.2 392.5 99.3333 383 96.5C380.6 94.5 378.667 97.3333 378 99H374V86C372.8 74.4 374.5 71.1667 375.5 71C377.9 70.2 381.5 79 383 83.5C394.6 96.3 406.833 95.1667 411.5 93C425 83.5 418 71 410.5 67.5C396 62.5 388.833 55.1667 383 50.5C369 33.3 375.833 17.3333 381 11.5C398.2 -4.49999 423.167 2.16667 433.5 7.50001Z" fill="#E3D6A9" stroke="#E3D6A9"/>
</svg>
